<svg width="83" height="50" viewBox="0 0 83 50" fill="none" xmlns="http://www.w3.org/2000/svg">
<path fill-rule="evenodd" clip-rule="evenodd" d="M41.2926 2.38672L41.703 3.65046L43.0316 3.63966L41.9622 4.42814L42.3727 5.68108L41.2926 4.9034L40.2232 5.68108L40.6337 4.42814L39.5536 3.63966L40.8929 3.65046L41.2926 2.38672Z" fill="#2A2725"/>
<path fill-rule="evenodd" clip-rule="evenodd" d="M31.7879 6.01592L32.1983 7.29046H33.5377L32.4575 8.07894L32.8788 9.35348L31.7879 8.565L30.7077 9.35348L31.129 8.07894L30.0381 7.29046H31.3666L31.7879 6.01592Z" fill="#2A2725"/>
<path fill-rule="evenodd" clip-rule="evenodd" d="M50.8084 6.01592L51.208 7.29046H52.5582L51.4673 8.07894L51.8885 9.35348L50.8084 8.565L49.7175 9.35348L50.1387 8.07894L49.0478 7.29046H50.3871L50.8084 6.01592Z" fill="#2A2725"/>
<path fill-rule="evenodd" clip-rule="evenodd" d="M10.3976 32.8631C13.3517 29.7457 16.6329 26.3931 17.5397 26.0402C19.2411 25.3442 21.1762 26.4421 22.9337 24.9226C28.898 19.7565 26.3459 19.0212 30.9453 22.668C32.6934 24.06 32.4971 23.5502 34.4042 21.3347C35.2362 20.374 41.2285 12.3748 41.7333 12.4434C42.1446 12.5022 50.3711 23.9718 52.2034 24.4031C53.7272 24.756 57.5974 21.1779 58.4668 21.7367C62.0098 23.9914 59.9345 25.5893 64.5245 24.7952C68.2452 24.158 68.2358 25.0207 71.5265 27.8832C72.5735 28.785 75.6845 33.3064 76.7316 34.2181L74.6582 35.2452H71.3488C69.9185 32.4808 70.3953 32.2455 68.0208 30.2065C65.7866 28.2655 69.2548 25.8245 64.7396 27.5205C61.8042 28.6184 66.6092 31.5005 66.8897 33.4317C66.0109 33.6081 59.5232 30.1771 58.6631 28.4125C58.0648 27.197 57.6722 25.6285 56.728 24.707C53.2037 26.5598 54.204 27.197 57.0085 30.5692C58.9997 32.9611 60.215 34.412 60.8132 35.255H47.1273C45.5287 33.7454 43.9301 32.2455 43.3505 32.2259C42.6494 32.2063 40.2001 34.1865 38.7605 35.255H37.807C38.4426 32.1279 42.5653 26.2461 41.1256 23.3542C39.1625 19.4035 40.0599 21.2563 40.2001 17.139C40.2469 15.7176 38.0033 19.433 37.5919 19.9819C29.7767 30.3437 33.3104 25.7657 27.8603 23.4816C26.9816 24.3345 21.4193 30.5398 21.1762 30.5986C21.036 30.628 18.5307 29.6477 18.3998 29.6673C17.5865 29.7261 13.7817 32.4612 10.3696 34.9119L9.33222 34.2181L10.3976 32.8631Z" fill="#2A2725"/>
<path d="M7.17967 49.9892C7.73053 49.9892 8.23818 49.8272 8.54061 49.4923L9.99877 44.0377C10.3444 45.9279 10.7981 49.9892 12.6991 49.9892C13.0879 49.9892 13.6928 49.6544 14.2328 49.2979C14.8809 48.8767 15.0429 48.7903 15.1293 48.7471C15.1509 48.7363 15.1725 48.7255 15.1725 48.7039C15.1725 48.6607 15.1401 48.6498 15.0861 48.6498C14.9457 48.6498 14.06 48.531 13.4984 46.7812C13.1419 45.6471 12.9583 44.5562 12.7639 43.4113C12.3534 41.0782 11.6189 38.7668 10.1176 38.7668H7.35249C7.27688 38.7668 7.24447 38.7776 7.24447 38.81C7.24447 38.9072 7.71972 38.864 7.71972 39.8361C7.71972 42.1367 4.7278 45.3987 4.63059 47.4293C4.56578 48.8335 5.57029 49.9892 7.17967 49.9892ZM7.60091 41.4887C7.91414 40.5166 7.98975 39.7605 8.23818 39.7605C8.32459 39.7605 8.56222 39.8685 8.67023 40.0629C9.28589 41.1106 9.64233 42.2988 9.64233 43.5193C9.64233 44.945 9.15628 47.5373 7.89254 47.5373C6.83403 47.5373 6.31557 46.7488 6.31557 45.8415C6.31557 44.4698 7.05005 43.1736 7.60091 41.4887Z" fill="#1B1614"/>
<path d="M18.1791 49.9892C18.46 49.9892 18.6976 49.892 18.8704 49.7624L20.0045 47.3537V49.0495C20.0045 49.4383 20.7282 49.9892 21.0739 49.9892C21.5707 49.9892 22.586 49.4815 23.1909 49.0603V49.0171C22.9101 48.7903 22.6076 48.315 22.6076 47.7642V39.5877C22.6076 39.0908 21.938 38.6048 21.5707 38.6048C21.1927 38.6048 20.2422 39.1016 19.3889 39.4472V39.5013C19.9505 39.9765 20.0045 40.6138 20.0045 41.4131V43.3573C19.6049 42.7848 19.1189 42.1907 18.3844 42.1907C16.883 42.1907 15.6193 44.2106 15.6193 46.7488C15.6193 48.3474 16.775 49.9892 18.1791 49.9892ZM18.0603 45.7767C18.0603 44.621 18.406 43.3681 19.3781 43.3681C19.7669 43.3681 19.9289 43.5517 20.0045 43.7029V47.0297C19.8101 47.3969 19.4537 47.7101 19.0864 47.7101C18.2332 47.7101 18.0603 46.6516 18.0603 45.7767Z" fill="#1B1614"/>
<path d="M23.4113 43.5949V43.6489C24.2106 43.6489 24.5994 44.621 24.7074 44.9018C25.0099 45.6903 25.5823 47.1161 25.9496 48.0234C26.468 49.3087 26.8028 49.9892 27.2133 49.9892C27.6345 49.9892 28.9415 49.0603 28.9415 49.0603L31.4474 42.3636H27.6669V42.4068C29.6652 43.2601 29.3843 48.2502 28.9739 48.2502C28.8443 48.2502 28.5202 47.4617 28.1314 46.5004C27.7858 45.6255 27.2889 44.3942 26.9649 43.6381C26.684 42.9792 26.4572 42.1907 25.9064 42.1907C25.3879 42.1907 24.3834 43.044 23.4113 43.5949Z" fill="#1B1614"/>
<path d="M31.8892 46.2088C31.8892 48.3042 33.6066 50 35.6912 50C37.4194 50 38.748 48.9955 38.748 47.5913C38.748 47.1809 38.5319 46.8245 38.3159 46.7705C37.8947 47.3321 37.387 47.5589 36.6633 47.5589C35.8316 47.5589 35.0972 47.1809 34.6111 46.5652H35.432C37.765 46.5652 38.7372 45.7335 38.7372 44.6426C38.7372 43.3573 37.5706 42.2016 35.9505 42.2016C35.702 42.2016 33.9954 42.774 33.0341 43.5733C32.3213 44.189 31.8892 45.2367 31.8892 46.2088ZM35.2376 42.6336C35.9721 42.6336 36.3177 43.6165 36.3177 44.3078C36.3177 45.5391 35.4212 46.2412 34.4599 46.3816C34.1467 45.8848 33.9522 45.2799 33.9522 44.6102C33.9522 43.8217 34.3303 42.6336 35.2376 42.6336Z" fill="#1B1614"/>
<path d="M39.5888 45.0099V48.099C39.5888 49.7408 39.1027 49.784 39.1027 49.784V49.8272H42.6671V49.784C42.6671 49.784 42.1811 49.7408 42.1811 48.099V44.7722C42.2135 44.4806 42.5267 44.1242 42.9803 44.1242C43.6284 44.1242 43.8444 44.6642 43.8444 45.2583V49.0495C43.8444 49.4383 44.5573 49.9892 44.903 49.9892C45.3998 49.9892 46.4151 49.4815 47.0308 49.0603V49.0171C46.7392 48.7903 46.4367 48.315 46.4367 47.7642V44.3618C46.4367 43.2709 45.767 42.1907 44.3953 42.1907C44.1361 42.1907 43.9849 42.2448 43.7796 42.2988C43.1748 42.72 42.5483 43.5841 42.1811 44.2862V43.1845C42.1811 42.6768 41.5222 42.1907 41.1441 42.1907C40.7661 42.1907 39.8156 42.6984 38.9623 43.044V43.0872C39.524 43.5625 39.5888 44.2106 39.5888 45.0099Z" fill="#1B1614"/>
<path d="M47.7327 42.4176V49.0495C47.7327 49.4383 48.4563 49.9892 48.802 49.9892C49.2988 49.9892 50.3141 49.4815 50.919 49.0603V49.0171C50.6382 48.7903 50.3357 48.315 50.3357 47.7641V42.4176H51.0378V42.1907H50.3357V39.6093H50.2817C49.4176 40.7974 48.0567 41.8667 47.0306 42.1907V42.4176H47.7327Z" fill="#1B1614"/>
<path d="M51.2616 43.1197V43.1737C51.5532 43.4005 51.8556 43.8757 51.8556 44.4266V47.829C51.8556 48.9199 52.5361 49.9892 53.9078 49.9892C54.1671 49.9892 54.3075 49.946 54.5127 49.892C55.1176 49.4707 55.744 48.5958 56.1113 47.9046V49.0063C56.1113 49.5031 56.7702 49.9892 57.1482 49.9892C57.5262 49.9892 58.4767 49.4923 59.33 49.1467V49.0927C58.7684 48.6174 58.7036 47.9802 58.7036 47.1809V43.1305C58.7036 42.7524 57.9907 42.1907 57.645 42.1907C57.1482 42.1907 56.1329 42.7092 55.5172 43.1197V43.1737C55.8088 43.4005 56.1113 43.8757 56.1113 44.4266V47.4185C56.0789 47.6993 55.7656 48.0666 55.312 48.0666C54.6639 48.0666 54.4479 47.5265 54.4479 46.9325V43.1305C54.4479 42.7524 53.735 42.1907 53.3894 42.1907C52.8925 42.1907 51.8772 42.7092 51.2616 43.1197Z" fill="#1B1614"/>
<path d="M59.4352 43.0872C59.9969 43.5625 60.0617 44.2106 60.0617 45.0099V48.099C60.0617 49.7408 59.5757 49.784 59.5757 49.784V49.8272H63.14V49.784C63.14 49.784 62.654 49.7408 62.654 48.099V46.9973C62.654 45.8848 63.1077 44.5346 65.1923 44.5346C65.6891 44.5346 66.024 44.6102 66.4344 44.7722C66.5532 44.8154 66.672 44.5562 66.672 43.9405C66.672 42.6444 65.8511 42.1799 65.2571 42.1799C64.2202 42.1799 63.032 43.3789 62.654 45.6147V43.1845C62.654 42.6768 61.9951 42.1907 61.6171 42.1907C61.239 42.1907 60.2885 42.6984 59.4352 43.044V43.0872Z" fill="#1B1614"/>
<path d="M67.5165 45.0098V48.099C67.5165 49.7408 67.0304 49.784 67.0304 49.784V49.8272H70.5948V49.784C70.5948 49.784 70.1088 49.7408 70.1088 48.099V43.1845C70.1088 42.6768 69.4499 42.1907 69.0719 42.1907C68.6938 42.1907 67.7433 42.6984 66.89 43.044V43.0872C67.4517 43.5625 67.5165 44.2106 67.5165 45.0098ZM67.0412 41.1646H70.2276V40.9378H67.0412V41.1646Z" fill="#1B1614"/>
<path d="M70.8165 48.1962C70.8165 49.2115 71.7022 49.9892 72.6851 49.9892C73.2251 49.9892 73.6356 49.8272 74.0028 49.4815L75.2558 46.5652C75.2558 47.7966 75.245 48.8875 75.245 49.0495C75.245 49.4383 75.9578 49.9892 76.3035 49.9892C76.8003 49.9892 77.8156 49.4815 78.4313 49.0603V49.0171C78.1397 48.7903 77.8372 48.315 77.8372 47.7642V45.6795C77.8372 43.7461 76.2387 42.1907 74.0136 42.1907C72.4474 42.1907 70.8705 43.3357 70.8705 44.3294C70.8705 44.9558 71.6482 45.7659 72.2098 45.7551C72.8579 44.4806 74.5645 42.6336 75.0505 42.6336C75.2342 42.6336 75.2774 42.7524 75.2774 42.9576C75.2774 43.2925 75.2666 44.5994 75.2666 45.9172H73.1063C71.875 45.9172 70.8165 46.9433 70.8165 48.1962ZM73.3547 47.3105C73.3547 46.684 74.3377 46.1656 75.2666 46.1116L75.245 46.1008C75.2126 46.5544 74.3593 47.6669 73.7436 47.6669C73.4952 47.6669 73.3547 47.4941 73.3547 47.3105Z" fill="#1B1614"/>
<path fill-rule="evenodd" clip-rule="evenodd" d="M15.4658 12.4279C22.0848 5.89363 31.2128 1.85778 41.2927 1.85778C51.3833 1.85778 60.5114 5.89363 67.1195 12.4279C72.7326 17.9585 76.5071 25.2722 77.5454 33.4506H5.05073C6.07818 25.2722 9.86351 17.9585 15.4658 12.4279ZM79.4381 33.4506C78.4106 24.7703 74.3982 16.9869 68.4606 11.1039C61.5064 4.2494 51.9132 0 41.2927 0C30.6829 0 21.0789 4.2494 14.1355 11.1039C8.17633 16.9869 4.1855 24.7703 3.13642 33.4506H0V35.255H82.953V33.4506H79.4381Z" fill="#FF7035"/>
</svg>
