<svg width="32" height="32" viewBox="0 0 32 32" fill="none" xmlns="http://www.w3.org/2000/svg">
<path d="M23.9438 16.0875C23.9813 15.75 24 15.4625 24 15.225C24 14 23.7938 13.9937 23 13.9937H18.2812C18.7375 13.2437 19 12.4688 19 11.6812C19 9.3125 15.4187 8.15625 15.4187 6.18125C15.4187 5.45 15.7375 4.85 16 4C14.3438 4.4375 13.0375 6.09375 13.0375 7.85C13.0375 10.8687 16.5562 10.8937 16.5562 13.15C16.5562 13.4312 16.4687 13.6812 16.425 13.9937H12.9312C12.9812 13.8062 13.0125 13.6063 13.0125 13.4125C13.0125 11.9875 10.5688 11.2938 10.5688 10.1125C10.5688 9.675 10.6313 9.3125 10.7688 8.8C9.9625 9.11875 9 10.05 9 11.1C9 12.7688 10.9938 12.9312 11.3 13.9937H5C4.20625 13.9937 4 14 4 15.225C4 16.45 4.48125 19.0563 5.76875 22.1625C7.05625 25.2688 8.54375 26.6375 9.59375 27.55L9.6 27.5375C9.91875 27.825 10.3375 27.9937 10.8 27.9937H17.2C17.6625 27.9937 18.0812 27.825 18.4 27.5375L18.4062 27.55C18.9688 27.0625 19.6562 26.4375 20.3687 25.4937C20.6625 25.6187 20.9812 25.725 21.3312 25.8062C21.8562 25.9312 22.3813 25.9937 22.8813 25.9937C24.3813 25.9937 25.7312 25.4188 26.6812 24.3813C27.5187 23.4688 28 22.2312 28 20.9937C28 18.5625 26.25 16.5312 23.9438 16.0875ZM22.8813 24.0125C22.3438 24.0125 21.9062 23.9375 21.5 23.75C21.75 23.25 21.9938 22.7563 22.2313 22.1812C22.8625 20.6562 23.3 19.2438 23.5812 18.0688C24.9562 18.3375 26 19.5563 26 21.0125C26 22.4313 24.925 24.0125 22.8813 24.0125Z" fill="#FF7035"/>
</svg>
