<svg width="32" height="32" viewBox="0 0 32 32" fill="none" xmlns="http://www.w3.org/2000/svg">
<circle cx="16" cy="16" r="16" fill="#FF7035"/>
<path d="M20.5371 10.98C20.4424 10.98 20.3516 10.9424 20.2846 10.8754C20.2176 10.8084 20.18 10.7176 20.18 10.6229C20.18 10.5281 20.2176 10.4373 20.2846 10.3703C20.3516 10.3033 20.4424 10.2657 20.5371 10.2657" fill="#FFEFE9"/>
<path d="M20.5371 10.98C20.6319 10.98 20.7227 10.9424 20.7897 10.8754C20.8567 10.8084 20.8943 10.7176 20.8943 10.6229C20.8943 10.5281 20.8567 10.4373 20.7897 10.3703C20.7227 10.3033 20.6319 10.2657 20.5371 10.2657" fill="#FFEFE9"/>
<path d="M7.00143 10.6757C7.00143 9.70085 7.38869 8.76592 8.07802 8.07659C8.76735 7.38726 9.70228 7 10.6771 7H20.48C20.9627 7 21.4407 7.09508 21.8866 7.2798C22.3326 7.46452 22.7378 7.73527 23.0791 8.07659C23.4204 8.41791 23.6912 8.82312 23.8759 9.26908C24.0606 9.71504 24.1557 10.193 24.1557 10.6757V20.4786C24.1557 21.4534 23.7685 22.3884 23.0791 23.0777C22.3898 23.767 21.4549 24.1543 20.48 24.1543H10.6757C9.70085 24.1543 8.76592 23.767 8.07659 23.0777C7.38726 22.3884 7 21.4534 7 20.4786V10.6743L7.00143 10.6757Z" fill="#FFEFE9"/>
<path d="M11.9357 15.5771C11.9357 16.0555 12.0299 16.5292 12.213 16.9712C12.3961 17.4132 12.6644 17.8148 13.0027 18.153C13.341 18.4913 13.7425 18.7596 14.1845 18.9427C14.6265 19.1258 15.1002 19.22 15.5786 19.22C16.057 19.22 16.5307 19.1258 16.9726 18.9427C17.4146 18.7596 17.8162 18.4913 18.1545 18.153C18.4927 17.8148 18.7611 17.4132 18.9441 16.9712C19.1272 16.5292 19.2214 16.0555 19.2214 15.5771C19.2214 14.611 18.8376 13.6844 18.1545 13.0013C17.4713 12.3181 16.5447 11.9343 15.5786 11.9343C14.6124 11.9343 13.6859 12.3181 13.0027 13.0013C12.3195 13.6844 11.9357 14.611 11.9357 15.5771Z" fill="#FFEFE9"/>
<path d="M20.5371 10.98C20.4424 10.98 20.3516 10.9424 20.2846 10.8754C20.2176 10.8084 20.18 10.7176 20.18 10.6229C20.18 10.5281 20.2176 10.4373 20.2846 10.3703C20.3516 10.3033 20.4424 10.2657 20.5371 10.2657C20.6319 10.2657 20.7227 10.3033 20.7897 10.3703C20.8567 10.4373 20.8943 10.5281 20.8943 10.6229C20.8943 10.7176 20.8567 10.8084 20.7897 10.8754C20.7227 10.9424 20.6319 10.98 20.5371 10.98ZM7.00143 10.6757C7.00143 9.70085 7.38869 8.76592 8.07802 8.07659C8.76735 7.38726 9.70228 7 10.6771 7H20.48C20.9627 7 21.4407 7.09508 21.8866 7.2798C22.3326 7.46452 22.7378 7.73527 23.0791 8.07659C23.4204 8.41791 23.6912 8.82312 23.8759 9.26908C24.0606 9.71504 24.1557 10.193 24.1557 10.6757V20.4786C24.1557 21.4534 23.7685 22.3884 23.0791 23.0777C22.3898 23.767 21.4549 24.1543 20.48 24.1543H10.6757C9.70085 24.1543 8.76592 23.767 8.07659 23.0777C7.38726 22.3884 7 21.4534 7 20.4786V10.6743L7.00143 10.6757ZM11.9357 15.5771C11.9357 16.0555 12.0299 16.5292 12.213 16.9712C12.3961 17.4132 12.6644 17.8148 13.0027 18.153C13.341 18.4913 13.7425 18.7596 14.1845 18.9427C14.6265 19.1258 15.1002 19.22 15.5786 19.22C16.057 19.22 16.5307 19.1258 16.9726 18.9427C17.4146 18.7596 17.8162 18.4913 18.1545 18.153C18.4927 17.8148 18.7611 17.4132 18.9441 16.9712C19.1272 16.5292 19.2214 16.0555 19.2214 15.5771C19.2214 14.611 18.8376 13.6844 18.1545 13.0013C17.4713 12.3181 16.5447 11.9343 15.5786 11.9343C14.6124 11.9343 13.6859 12.3181 13.0027 13.0013C12.3195 13.6844 11.9357 14.611 11.9357 15.5771Z" stroke="#FF7035" stroke-linecap="round" stroke-linejoin="round"/>
</svg>
