<svg width="379" height="30" viewBox="0 0 379 30" fill="none" xmlns="http://www.w3.org/2000/svg">
<path d="M5.41016 8.01562C7.22005 8.01562 8.52865 8.76107 9.33594 10.252C9.96094 11.4043 10.2734 12.9831 10.2734 14.9883C10.2734 16.8893 9.99023 18.4616 9.42383 19.7051C8.60352 21.4889 7.26237 22.3809 5.40039 22.3809C3.7207 22.3809 2.4707 21.6517 1.65039 20.1934C0.966797 18.9759 0.625 17.3418 0.625 15.291C0.625 13.7025 0.830078 12.3385 1.24023 11.1992C2.00846 9.07682 3.39844 8.01562 5.41016 8.01562ZM5.39062 20.7793C6.30208 20.7793 7.02799 20.3757 7.56836 19.5684C8.10872 18.7611 8.37891 17.2572 8.37891 15.0566C8.37891 13.4681 8.18359 12.1628 7.79297 11.1406C7.40234 10.112 6.64388 9.59766 5.51758 9.59766C4.48242 9.59766 3.72396 10.0859 3.24219 11.0625C2.76693 12.0326 2.5293 13.4648 2.5293 15.3594C2.5293 16.7852 2.68229 17.931 2.98828 18.7969C3.45703 20.1185 4.25781 20.7793 5.39062 20.7793ZM13.6035 18.4355C13.7207 19.4382 14.1862 20.1315 15 20.5156C15.4167 20.7109 15.8984 20.8086 16.4453 20.8086C17.487 20.8086 18.2585 20.4766 18.7598 19.8125C19.2611 19.1484 19.5117 18.4128 19.5117 17.6055C19.5117 16.6289 19.2122 15.8737 18.6133 15.3398C18.0208 14.806 17.3079 14.5391 16.4746 14.5391C15.8691 14.5391 15.3483 14.6562 14.9121 14.8906C14.4824 15.125 14.1146 15.4505 13.8086 15.8672L12.2852 15.7793L13.3496 8.25H20.6152V9.94922H14.668L14.0723 13.8359C14.3978 13.5885 14.707 13.403 15 13.2793C15.5208 13.0645 16.123 12.957 16.8066 12.957C18.0892 12.957 19.1764 13.3704 20.0684 14.1973C20.9603 15.0241 21.4062 16.0723 21.4062 17.3418C21.4062 18.6634 20.9961 19.8288 20.1758 20.8379C19.362 21.847 18.0599 22.3516 16.2695 22.3516C15.1302 22.3516 14.1211 22.0326 13.2422 21.3945C12.3698 20.75 11.8815 19.7637 11.7773 18.4355H13.6035Z" fill="#FC4F08"/>
<g clip-path="url(#clip0_905_1158)">
<rect x="39" y="14" width="301" height="2" fill="#FFFEFE"/>
<rect x="39" y="14" width="219.272" height="2" fill="#FC4F08"/>
</g>
<rect x="38.9" y="13.9" width="301.2" height="2.2" rx="1.1" stroke="#FC4F08" stroke-width="0.2"/>
<path d="M361.41 8.01562C363.22 8.01562 364.529 8.76107 365.336 10.252C365.961 11.4043 366.273 12.9831 366.273 14.9883C366.273 16.8893 365.99 18.4616 365.424 19.7051C364.604 21.4889 363.262 22.3809 361.4 22.3809C359.721 22.3809 358.471 21.6517 357.65 20.1934C356.967 18.9759 356.625 17.3418 356.625 15.291C356.625 13.7025 356.83 12.3385 357.24 11.1992C358.008 9.07682 359.398 8.01562 361.41 8.01562ZM361.391 20.7793C362.302 20.7793 363.028 20.3757 363.568 19.5684C364.109 18.7611 364.379 17.2572 364.379 15.0566C364.379 13.4681 364.184 12.1628 363.793 11.1406C363.402 10.112 362.644 9.59766 361.518 9.59766C360.482 9.59766 359.724 10.0859 359.242 11.0625C358.767 12.0326 358.529 13.4648 358.529 15.3594C358.529 16.7852 358.682 17.931 358.988 18.7969C359.457 20.1185 360.258 20.7793 361.391 20.7793ZM377.592 8.25V9.7832C377.143 10.2194 376.544 10.9779 375.795 12.0586C375.053 13.1393 374.395 14.3047 373.822 15.5547C373.256 16.7721 372.826 17.8822 372.533 18.8848C372.344 19.5293 372.1 20.5677 371.801 22H369.857C370.3 19.3307 371.277 16.6745 372.787 14.0312C373.679 12.4818 374.617 11.1439 375.6 10.0176H367.865V8.25H377.592Z" fill="#F5F5F5"/>
<defs>
<clipPath id="clip0_905_1158">
<rect x="39" y="14" width="301" height="2" rx="1" fill="white"/>
</clipPath>
</defs>
</svg>
