<svg width="379" height="30" viewBox="0 0 379 30" fill="none" xmlns="http://www.w3.org/2000/svg">
<path d="M5.41016 8.01562C7.22005 8.01562 8.52865 8.76107 9.33594 10.252C9.96094 11.4043 10.2734 12.9831 10.2734 14.9883C10.2734 16.8893 9.99023 18.4616 9.42383 19.7051C8.60352 21.4889 7.26237 22.3809 5.40039 22.3809C3.7207 22.3809 2.4707 21.6517 1.65039 20.1934C0.966797 18.9759 0.625 17.3418 0.625 15.291C0.625 13.7025 0.830078 12.3385 1.24023 11.1992C2.00846 9.07682 3.39844 8.01562 5.41016 8.01562ZM5.39062 20.7793C6.30208 20.7793 7.02799 20.3757 7.56836 19.5684C8.10872 18.7611 8.37891 17.2572 8.37891 15.0566C8.37891 13.4681 8.18359 12.1628 7.79297 11.1406C7.40234 10.112 6.64388 9.59766 5.51758 9.59766C4.48242 9.59766 3.72396 10.0859 3.24219 11.0625C2.76693 12.0326 2.5293 13.4648 2.5293 15.3594C2.5293 16.7852 2.68229 17.931 2.98828 18.7969C3.45703 20.1185 4.25781 20.7793 5.39062 20.7793ZM16.9824 7.95703C18.5449 7.95703 19.6322 8.36393 20.2441 9.17773C20.8626 9.98503 21.1719 10.8184 21.1719 11.6777H19.4336C19.3294 11.1243 19.1634 10.6914 18.9355 10.3789C18.5124 9.79297 17.8711 9.5 17.0117 9.5C16.0286 9.5 15.2474 9.95573 14.668 10.8672C14.0885 11.7721 13.7663 13.071 13.7012 14.7637C14.1048 14.1712 14.6126 13.7285 15.2246 13.4355C15.7845 13.1751 16.4095 13.0449 17.0996 13.0449C18.2715 13.0449 19.2936 13.4193 20.166 14.168C21.0384 14.9167 21.4746 16.0332 21.4746 17.5176C21.4746 18.7871 21.0612 19.9134 20.2344 20.8965C19.4076 21.873 18.2292 22.3613 16.6992 22.3613C15.3906 22.3613 14.2611 21.8665 13.3105 20.877C12.36 19.8809 11.8848 18.2077 11.8848 15.8574C11.8848 14.1191 12.0964 12.6445 12.5195 11.4336C13.3333 9.11589 14.821 7.95703 16.9824 7.95703ZM16.8555 20.7988C17.7799 20.7988 18.4701 20.4896 18.9258 19.8711C19.388 19.2461 19.6191 18.5104 19.6191 17.6641C19.6191 16.9479 19.4141 16.2676 19.0039 15.623C18.5938 14.972 17.8483 14.6465 16.7676 14.6465C16.0124 14.6465 15.3483 14.8971 14.7754 15.3984C14.209 15.8997 13.9258 16.6549 13.9258 17.6641C13.9258 18.5495 14.1829 19.2949 14.6973 19.9004C15.2181 20.4993 15.9375 20.7988 16.8555 20.7988Z" fill="#FCFCFC"/>
<g clip-path="url(#clip0_905_647)">
<rect x="39" y="14" width="301" height="2" fill="#BFB8B6"/>
<rect x="39" y="14" width="301" height="2" fill="#FC4F08"/>
</g>
<rect x="38.9" y="13.9" width="301.2" height="2.2" rx="1.1" stroke="#FC4F08" stroke-width="0.2"/>
<path d="M361.41 8.01562C363.22 8.01562 364.529 8.76107 365.336 10.252C365.961 11.4043 366.273 12.9831 366.273 14.9883C366.273 16.8893 365.99 18.4616 365.424 19.7051C364.604 21.4889 363.262 22.3809 361.4 22.3809C359.721 22.3809 358.471 21.6517 357.65 20.1934C356.967 18.9759 356.625 17.3418 356.625 15.291C356.625 13.7025 356.83 12.3385 357.24 11.1992C358.008 9.07682 359.398 8.01562 361.41 8.01562ZM361.391 20.7793C362.302 20.7793 363.028 20.3757 363.568 19.5684C364.109 18.7611 364.379 17.2572 364.379 15.0566C364.379 13.4681 364.184 12.1628 363.793 11.1406C363.402 10.112 362.644 9.59766 361.518 9.59766C360.482 9.59766 359.724 10.0859 359.242 11.0625C358.767 12.0326 358.529 13.4648 358.529 15.3594C358.529 16.7852 358.682 17.931 358.988 18.7969C359.457 20.1185 360.258 20.7793 361.391 20.7793ZM377.592 8.25V9.7832C377.143 10.2194 376.544 10.9779 375.795 12.0586C375.053 13.1393 374.395 14.3047 373.822 15.5547C373.256 16.7721 372.826 17.8822 372.533 18.8848C372.344 19.5293 372.1 20.5677 371.801 22H369.857C370.3 19.3307 371.277 16.6745 372.787 14.0312C373.679 12.4818 374.617 11.1439 375.6 10.0176H367.865V8.25H377.592Z" fill="#FF7035"/>
<defs>
<clipPath id="clip0_905_647">
<rect x="39" y="14" width="301" height="2" rx="1" fill="white"/>
</clipPath>
</defs>
</svg>
