<svg width="379" height="31" viewBox="0 0 379 31" fill="none" xmlns="http://www.w3.org/2000/svg">
<path d="M5.41016 8.67285C7.22005 8.67285 8.52865 9.41829 9.33594 10.9092C9.96094 12.0615 10.2734 13.6403 10.2734 15.6455C10.2734 17.5465 9.99023 19.1188 9.42383 20.3623C8.60352 22.1462 7.26237 23.0381 5.40039 23.0381C3.7207 23.0381 2.4707 22.3089 1.65039 20.8506C0.966797 19.6331 0.625 17.999 0.625 15.9482C0.625 14.3597 0.830078 12.9958 1.24023 11.8564C2.00846 9.73405 3.39844 8.67285 5.41016 8.67285ZM5.39062 21.4365C6.30208 21.4365 7.02799 21.0329 7.56836 20.2256C8.10872 19.4183 8.37891 17.9144 8.37891 15.7139C8.37891 14.1253 8.18359 12.82 7.79297 11.7979C7.40234 10.7692 6.64388 10.2549 5.51758 10.2549C4.48242 10.2549 3.72396 10.7432 3.24219 11.7197C2.76693 12.6898 2.5293 14.1221 2.5293 16.0166C2.5293 17.4424 2.68229 18.5882 2.98828 19.4541C3.45703 20.7757 4.25781 21.4365 5.39062 21.4365ZM13.0469 12.7549V11.4072C14.3164 11.2835 15.2018 11.0785 15.7031 10.792C16.2044 10.499 16.5788 9.81217 16.8262 8.73145H18.2129V22.6572H16.3379V12.7549H13.0469Z" fill="#FC4F08"/>
<g clip-path="url(#clip0_905_1238)">
<rect x="39" y="14.6572" width="301" height="2" fill="#FFFEFE"/>
<rect x="39" y="14.6572" width="43.8543" height="2" fill="#FC4F08"/>
</g>
<path d="M361.41 8.67285C363.22 8.67285 364.529 9.41829 365.336 10.9092C365.961 12.0615 366.273 13.6403 366.273 15.6455C366.273 17.5465 365.99 19.1188 365.424 20.3623C364.604 22.1462 363.262 23.0381 361.4 23.0381C359.721 23.0381 358.471 22.3089 357.65 20.8506C356.967 19.6331 356.625 17.999 356.625 15.9482C356.625 14.3597 356.83 12.9958 357.24 11.8564C358.008 9.73405 359.398 8.67285 361.41 8.67285ZM361.391 21.4365C362.302 21.4365 363.028 21.0329 363.568 20.2256C364.109 19.4183 364.379 17.9144 364.379 15.7139C364.379 14.1253 364.184 12.82 363.793 11.7979C363.402 10.7692 362.644 10.2549 361.518 10.2549C360.482 10.2549 359.724 10.7432 359.242 11.7197C358.767 12.6898 358.529 14.1221 358.529 16.0166C358.529 17.4424 358.682 18.5882 358.988 19.4541C359.457 20.7757 360.258 21.4365 361.391 21.4365ZM377.592 8.90723V10.4404C377.143 10.8766 376.544 11.6351 375.795 12.7158C375.053 13.7965 374.395 14.9619 373.822 16.2119C373.256 17.4294 372.826 18.5394 372.533 19.542C372.344 20.1865 372.1 21.2249 371.801 22.6572H369.857C370.3 19.988 371.277 17.3317 372.787 14.6885C373.679 13.139 374.617 11.8011 375.6 10.6748H367.865V8.90723H377.592Z" fill="#F5F5F5"/>
<defs>
<clipPath id="clip0_905_1238">
<rect x="39" y="14.6572" width="301" height="2" rx="1" fill="white"/>
</clipPath>
</defs>
</svg>
