<svg width="379" height="30" viewBox="0 0 379 30" fill="none" xmlns="http://www.w3.org/2000/svg">
<path d="M5.41016 8.01562C7.22005 8.01562 8.52865 8.76107 9.33594 10.252C9.96094 11.4043 10.2734 12.9831 10.2734 14.9883C10.2734 16.8893 9.99023 18.4616 9.42383 19.7051C8.60352 21.4889 7.26237 22.3809 5.40039 22.3809C3.7207 22.3809 2.4707 21.6517 1.65039 20.1934C0.966797 18.9759 0.625 17.3418 0.625 15.291C0.625 13.7025 0.830078 12.3385 1.24023 11.1992C2.00846 9.07682 3.39844 8.01562 5.41016 8.01562ZM5.39062 20.7793C6.30208 20.7793 7.02799 20.3757 7.56836 19.5684C8.10872 18.7611 8.37891 17.2572 8.37891 15.0566C8.37891 13.4681 8.18359 12.1628 7.79297 11.1406C7.40234 10.112 6.64388 9.59766 5.51758 9.59766C4.48242 9.59766 3.72396 10.0859 3.24219 11.0625C2.76693 12.0326 2.5293 13.4648 2.5293 15.3594C2.5293 16.7852 2.68229 17.931 2.98828 18.7969C3.45703 20.1185 4.25781 20.7793 5.39062 20.7793ZM11.7578 22C11.8229 20.7956 12.0703 19.7474 12.5 18.8555C12.9362 17.9635 13.7826 17.153 15.0391 16.4238L16.9141 15.3398C17.7539 14.8516 18.3431 14.4349 18.6816 14.0898C19.2155 13.5495 19.4824 12.931 19.4824 12.2344C19.4824 11.4206 19.2383 10.776 18.75 10.3008C18.2617 9.81901 17.6107 9.57812 16.7969 9.57812C15.5924 9.57812 14.7591 10.0339 14.2969 10.9453C14.0495 11.4336 13.9128 12.1107 13.8867 12.9766H12.0996C12.1191 11.7591 12.3438 10.7663 12.7734 9.99805C13.5352 8.64388 14.8796 7.9668 16.8066 7.9668C18.4082 7.9668 19.5768 8.39974 20.3125 9.26562C21.0547 10.1315 21.4258 11.0951 21.4258 12.1562C21.4258 13.276 21.0319 14.2331 20.2441 15.0273C19.7884 15.4896 18.9714 16.0495 17.793 16.707L16.4551 17.4492C15.8171 17.8008 15.3158 18.1361 14.9512 18.4551C14.3001 19.0215 13.89 19.6497 13.7207 20.3398H21.3574V22H11.7578Z" fill="#FC4F08"/>
<g clip-path="url(#clip0_905_984)">
<rect x="39" y="14" width="301" height="2" fill="#FFFEFE"/>
<rect x="39" y="14" width="87.7086" height="2" fill="#FC4F08"/>
</g>
<rect x="38.9" y="13.9" width="301.2" height="2.2" rx="1.1" stroke="#FC4F08" stroke-width="0.2"/>
<path d="M361.41 8.01562C363.22 8.01562 364.529 8.76107 365.336 10.252C365.961 11.4043 366.273 12.9831 366.273 14.9883C366.273 16.8893 365.99 18.4616 365.424 19.7051C364.604 21.4889 363.262 22.3809 361.4 22.3809C359.721 22.3809 358.471 21.6517 357.65 20.1934C356.967 18.9759 356.625 17.3418 356.625 15.291C356.625 13.7025 356.83 12.3385 357.24 11.1992C358.008 9.07682 359.398 8.01562 361.41 8.01562ZM361.391 20.7793C362.302 20.7793 363.028 20.3757 363.568 19.5684C364.109 18.7611 364.379 17.2572 364.379 15.0566C364.379 13.4681 364.184 12.1628 363.793 11.1406C363.402 10.112 362.644 9.59766 361.518 9.59766C360.482 9.59766 359.724 10.0859 359.242 11.0625C358.767 12.0326 358.529 13.4648 358.529 15.3594C358.529 16.7852 358.682 17.931 358.988 18.7969C359.457 20.1185 360.258 20.7793 361.391 20.7793ZM377.592 8.25V9.7832C377.143 10.2194 376.544 10.9779 375.795 12.0586C375.053 13.1393 374.395 14.3047 373.822 15.5547C373.256 16.7721 372.826 17.8822 372.533 18.8848C372.344 19.5293 372.1 20.5677 371.801 22H369.857C370.3 19.3307 371.277 16.6745 372.787 14.0312C373.679 12.4818 374.617 11.1439 375.6 10.0176H367.865V8.25H377.592Z" fill="#F5F5F5"/>
<defs>
<clipPath id="clip0_905_984">
<rect x="39" y="14" width="301" height="2" rx="1" fill="white"/>
</clipPath>
</defs>
</svg>
