<svg width="98" height="98" viewBox="0 0 98 98" fill="none" xmlns="http://www.w3.org/2000/svg">
<g filter="url(#filter0_d_815_1242)">
<rect x="21" y="8" width="56" height="56" rx="8" fill="#FF7035" shape-rendering="crispEdges"/>
<path d="M77 36C77 51.464 64.464 64 49 64C33.536 64 21 51.464 21 36C21 20.536 33.536 8 49 8C64.464 8 77 20.536 77 36Z" fill="#FF7035"/>
<path fill-rule="evenodd" clip-rule="evenodd" d="M40.0203 27.0203C41.9542 25.0865 44.5772 24 47.3121 24C50.047 24 52.6699 25.0865 54.6038 27.0203C56.5377 28.9542 57.6242 31.5772 57.6242 34.3121C57.6242 36.702 56.7946 39.0064 55.2948 40.8402L60.6987 46.2441C61.1004 46.6458 61.1004 47.2971 60.6987 47.6987C60.2971 48.1004 59.6458 48.1004 59.2441 47.6987L53.8402 42.2948C52.0064 43.7946 49.702 44.6242 47.3121 44.6242C44.5772 44.6242 41.9542 43.5377 40.0203 41.6038C38.0865 39.6699 37 37.047 37 34.3121C37 31.5772 38.0865 28.9542 40.0203 27.0203ZM47.3121 26.0571C45.1227 26.0571 43.0231 26.9269 41.475 28.475C39.9269 30.0231 39.0571 32.1227 39.0571 34.3121C39.0571 36.5014 39.9269 38.6011 41.475 40.1492C43.0231 41.6973 45.1227 42.567 47.3121 42.567C49.5014 42.567 51.6011 41.6973 53.1492 40.1492C54.6973 38.6011 55.567 36.5014 55.567 34.3121C55.567 32.1227 54.6973 30.0231 53.1492 28.475C51.6011 26.9269 49.5014 26.0571 47.3121 26.0571Z" fill="#FCFCFC"/>
</g>
<defs>
<filter id="filter0_d_815_1242" x="0" y="0" width="98" height="98" filterUnits="userSpaceOnUse" color-interpolation-filters="sRGB">
<feFlood flood-opacity="0" result="BackgroundImageFix"/>
<feColorMatrix in="SourceAlpha" type="matrix" values="0 0 0 0 0 0 0 0 0 0 0 0 0 0 0 0 0 0 127 0" result="hardAlpha"/>
<feOffset dy="13"/>
<feGaussianBlur stdDeviation="10.5"/>
<feComposite in2="hardAlpha" operator="out"/>
<feColorMatrix type="matrix" values="0 0 0 0 1 0 0 0 0 0.439216 0 0 0 0 0.207843 0 0 0 0.3 0"/>
<feBlend mode="normal" in2="BackgroundImageFix" result="effect1_dropShadow_815_1242"/>
<feBlend mode="normal" in="SourceGraphic" in2="effect1_dropShadow_815_1242" result="shape"/>
</filter>
</defs>
</svg>
