<svg width="32" height="32" viewBox="0 0 32 32" fill="none" xmlns="http://www.w3.org/2000/svg">
<path d="M15.9998 0C7.17722 0 0 7.17745 0 15.9997C0 24.8223 7.17722 32 15.9998 32C24.8219 32 31.9997 24.8223 31.9997 15.9997C31.9997 7.17745 24.8219 0 15.9998 0ZM20.5218 10.1003C20.5218 10.1761 20.4917 10.2487 20.4382 10.3023C20.3846 10.3559 20.3119 10.386 20.2362 10.386L18.4174 10.3871C17.2173 10.3871 16.9979 10.8544 16.9979 11.7748V13.6842H20.1173C20.1993 13.6842 20.2776 13.7196 20.3316 13.7813C20.3856 13.843 20.4107 13.925 20.4007 14.0064L19.9565 17.4437C19.9476 17.5126 19.914 17.5759 19.8618 17.6217C19.8097 17.6675 19.7426 17.6928 19.6731 17.6928H16.9979V26.228C16.9979 26.3038 16.9678 26.3764 16.9143 26.43C16.8607 26.4836 16.788 26.5137 16.7123 26.5137H13.1632C13.0875 26.5137 13.0148 26.4836 12.9612 26.43C12.9077 26.3764 12.8776 26.3038 12.8776 26.228V17.6928H10.1938C10.118 17.6928 10.0454 17.6627 9.9918 17.6091C9.93823 17.5556 9.90813 17.4829 9.90813 17.4072V13.9698C9.90813 13.8941 9.93823 13.8214 9.9918 13.7678C10.0454 13.7143 10.118 13.6842 10.1938 13.6842H12.8776V11.4346C12.8776 8.4552 14.6807 6.6047 17.5838 6.6047C18.8319 6.6047 19.9348 6.69754 20.2736 6.74239C20.3423 6.75146 20.4053 6.78517 20.451 6.83725C20.4966 6.88932 20.5218 6.95622 20.5218 7.02548V10.1003Z" fill="#FF7035"/>
</svg>
