<svg width="93" height="32" viewBox="0 0 93 32" fill="none" xmlns="http://www.w3.org/2000/svg">
<path d="M32 1.28571C32 1.28571 32 19.3958 32 31M32 31C30 25.7852 24 23 24 23M32 31C32.9041 26.2852 40 23 40 23" stroke="#F5F5F5" stroke-width="2" stroke-linecap="round" stroke-linejoin="round"/>
<path d="M70.4286 10.9996V13.1424M76.8571 13.1424C76.8571 11.4375 76.1798 9.80234 74.9743 8.59675C73.7687 7.39116 72.1335 6.71387 70.4286 6.71387C68.7236 6.71387 67.0885 7.39116 65.8829 8.59675C64.6773 9.80234 64 11.4375 64 13.1424V18.8567C64 19.7009 64.1663 20.5369 64.4893 21.3168C64.8124 22.0968 65.2859 22.8055 65.8829 23.4024C66.4798 23.9994 67.1885 24.4729 67.9685 24.796C68.7484 25.119 69.5844 25.2853 70.4286 25.2853C71.2728 25.2853 72.1087 25.119 72.8887 24.796C73.6686 24.4729 74.3773 23.9994 74.9743 23.4024C75.5712 22.8055 76.0447 22.0968 76.3678 21.3168C76.6909 20.5369 76.8571 19.7009 76.8571 18.8567V13.1424Z" stroke="#F5F5F5" stroke-width="1.42857" stroke-linecap="round" stroke-linejoin="round"/>
</svg>
