<svg width="379" height="30" viewBox="0 0 379 30" fill="none" xmlns="http://www.w3.org/2000/svg">
<path d="M5.41016 8.01562C7.22005 8.01562 8.52865 8.76107 9.33594 10.252C9.96094 11.4043 10.2734 12.9831 10.2734 14.9883C10.2734 16.8893 9.99023 18.4616 9.42383 19.7051C8.60352 21.4889 7.26237 22.3809 5.40039 22.3809C3.7207 22.3809 2.4707 21.6517 1.65039 20.1934C0.966797 18.9759 0.625 17.3418 0.625 15.291C0.625 13.7025 0.830078 12.3385 1.24023 11.1992C2.00846 9.07682 3.39844 8.01562 5.41016 8.01562ZM5.39062 20.7793C6.30208 20.7793 7.02799 20.3757 7.56836 19.5684C8.10872 18.7611 8.37891 17.2572 8.37891 15.0566C8.37891 13.4681 8.18359 12.1628 7.79297 11.1406C7.40234 10.112 6.64388 9.59766 5.51758 9.59766C4.48242 9.59766 3.72396 10.0859 3.24219 11.0625C2.76693 12.0326 2.5293 13.4648 2.5293 15.3594C2.5293 16.7852 2.68229 17.931 2.98828 18.7969C3.45703 20.1185 4.25781 20.7793 5.39062 20.7793ZM16.3281 22.3809C14.6745 22.3809 13.4733 21.9284 12.7246 21.0234C11.9824 20.112 11.6113 19.0052 11.6113 17.7031H13.4473C13.5254 18.6081 13.6947 19.2656 13.9551 19.6758C14.4108 20.4115 15.2344 20.7793 16.4258 20.7793C17.3503 20.7793 18.0924 20.5319 18.6523 20.0371C19.2122 19.5423 19.4922 18.9043 19.4922 18.123C19.4922 17.1595 19.196 16.4857 18.6035 16.1016C18.0176 15.7174 17.2005 15.5254 16.1523 15.5254C16.0352 15.5254 15.9147 15.5286 15.791 15.5352C15.6738 15.5352 15.5534 15.5384 15.4297 15.5449V13.9922C15.612 14.0117 15.765 14.0247 15.8887 14.0312C16.0124 14.0378 16.1458 14.041 16.2891 14.041C16.9466 14.041 17.487 13.9368 17.9102 13.7285C18.6523 13.3639 19.0234 12.7129 19.0234 11.7754C19.0234 11.0788 18.776 10.5417 18.2812 10.1641C17.7865 9.78646 17.2103 9.59766 16.5527 9.59766C15.3809 9.59766 14.5703 9.98828 14.1211 10.7695C13.8737 11.1992 13.7337 11.8112 13.7012 12.6055H11.9629C11.9629 11.5638 12.1712 10.6784 12.5879 9.94922C13.304 8.64714 14.5638 7.99609 16.3672 7.99609C17.793 7.99609 18.8965 8.3151 19.6777 8.95312C20.459 9.58464 20.8496 10.5026 20.8496 11.707C20.8496 12.5664 20.6185 13.263 20.1562 13.7969C19.8698 14.1289 19.4987 14.3893 19.043 14.5781C19.7786 14.7799 20.3516 15.1706 20.7617 15.75C21.1784 16.3229 21.3867 17.026 21.3867 17.8594C21.3867 19.194 20.9473 20.2812 20.0684 21.1211C19.1895 21.9609 17.9427 22.3809 16.3281 22.3809Z" fill="#FC4F08"/>
<g clip-path="url(#clip0_905_97)">
<rect x="39" y="14" width="301" height="2" fill="#FFFEFE"/>
<rect x="39" y="14" width="131.563" height="2" fill="#FC4F08"/>
</g>
<rect x="38.9" y="13.9" width="301.2" height="2.2" rx="1.1" stroke="#FC4F08" stroke-width="0.2"/>
<path d="M361.41 8.01562C363.22 8.01562 364.529 8.76107 365.336 10.252C365.961 11.4043 366.273 12.9831 366.273 14.9883C366.273 16.8893 365.99 18.4616 365.424 19.7051C364.604 21.4889 363.262 22.3809 361.4 22.3809C359.721 22.3809 358.471 21.6517 357.65 20.1934C356.967 18.9759 356.625 17.3418 356.625 15.291C356.625 13.7025 356.83 12.3385 357.24 11.1992C358.008 9.07682 359.398 8.01562 361.41 8.01562ZM361.391 20.7793C362.302 20.7793 363.028 20.3757 363.568 19.5684C364.109 18.7611 364.379 17.2572 364.379 15.0566C364.379 13.4681 364.184 12.1628 363.793 11.1406C363.402 10.112 362.644 9.59766 361.518 9.59766C360.482 9.59766 359.724 10.0859 359.242 11.0625C358.767 12.0326 358.529 13.4648 358.529 15.3594C358.529 16.7852 358.682 17.931 358.988 18.7969C359.457 20.1185 360.258 20.7793 361.391 20.7793ZM377.592 8.25V9.7832C377.143 10.2194 376.544 10.9779 375.795 12.0586C375.053 13.1393 374.395 14.3047 373.822 15.5547C373.256 16.7721 372.826 17.8822 372.533 18.8848C372.344 19.5293 372.1 20.5677 371.801 22H369.857C370.3 19.3307 371.277 16.6745 372.787 14.0312C373.679 12.4818 374.617 11.1439 375.6 10.0176H367.865V8.25H377.592Z" fill="#F5F5F5"/>
<defs>
<clipPath id="clip0_905_97">
<rect x="39" y="14" width="301" height="2" rx="1" fill="white"/>
</clipPath>
</defs>
</svg>
