<svg width="56" height="56" viewBox="0 0 56 56" fill="none" xmlns="http://www.w3.org/2000/svg">
<rect width="56" height="56" rx="8" fill="#FF7035"/>
<path d="M56 28C56 43.464 43.464 56 28 56C12.536 56 0 43.464 0 28C0 12.536 12.536 0 28 0C43.464 0 56 12.536 56 28Z" fill="#FF7035"/>
<path fill-rule="evenodd" clip-rule="evenodd" d="M19.0203 19.0203C20.9542 17.0865 23.5772 16 26.3121 16C29.047 16 31.6699 17.0865 33.6038 19.0203C35.5377 20.9542 36.6242 23.5772 36.6242 26.3121C36.6242 28.702 35.7946 31.0064 34.2948 32.8402L39.6987 38.2441C40.1004 38.6458 40.1004 39.2971 39.6987 39.6987C39.2971 40.1004 38.6458 40.1004 38.2441 39.6987L32.8402 34.2948C31.0064 35.7946 28.702 36.6242 26.3121 36.6242C23.5772 36.6242 20.9542 35.5377 19.0203 33.6038C17.0865 31.6699 16 29.047 16 26.3121C16 23.5772 17.0865 20.9542 19.0203 19.0203ZM26.3121 18.0571C24.1227 18.0571 22.0231 18.9269 20.475 20.475C18.9269 22.0231 18.0571 24.1227 18.0571 26.3121C18.0571 28.5014 18.9269 30.6011 20.475 32.1492C22.0231 33.6973 24.1227 34.567 26.3121 34.567C28.5014 34.567 30.6011 33.6973 32.1492 32.1492C33.6973 30.6011 34.567 28.5014 34.567 26.3121C34.567 24.1227 33.6973 22.0231 32.1492 20.475C30.6011 18.9269 28.5014 18.0571 26.3121 18.0571Z" fill="#FCFCFC"/>
</svg>
