<svg width="32" height="32" viewBox="0 0 32 32" fill="none" xmlns="http://www.w3.org/2000/svg">
<g id="Twitter">
<path id="Vector" d="M15.9994 0C7.17745 0 0 7.17745 0 15.9997C0 24.8223 7.17745 32 15.9994 32C24.822 32 31.9994 24.8223 31.9994 15.9997C31.9991 7.17745 24.8217 0 15.9994 0ZM24.5149 11.8268C24.0907 12.4621 23.5631 13.0219 22.9541 13.4831C22.9566 13.5759 22.9583 13.6687 22.9583 13.7616C22.9583 18.4275 19.4079 23.2537 13.4662 23.2537C11.653 23.2546 9.87774 22.7346 8.3515 21.7557C8.29709 21.721 8.25609 21.6688 8.23523 21.6077C8.21437 21.5466 8.21487 21.4803 8.23667 21.4195C8.25788 21.3584 8.29939 21.3064 8.35428 21.2722C8.40917 21.238 8.47413 21.2237 8.53832 21.2315C8.78885 21.2604 9.03708 21.2747 9.27646 21.2747C10.4419 21.2747 11.5526 20.9613 12.5275 20.3626C11.9404 20.2208 11.3996 19.9303 10.9572 19.519C10.5148 19.1077 10.1858 18.5895 10.0017 18.0142C9.98668 17.9669 9.98413 17.9166 9.99435 17.8681C10.0046 17.8196 10.0272 17.7745 10.06 17.7374C10.0929 17.7002 10.1349 17.6722 10.1819 17.6563C10.2289 17.6404 10.2793 17.6372 10.328 17.6468C10.3817 17.6571 10.4357 17.666 10.4894 17.6734C9.49728 17.0412 8.85369 15.9297 8.85369 14.6991V14.6583C8.85372 14.6086 8.86671 14.5597 8.8914 14.5166C8.91609 14.4734 8.95161 14.4374 8.99446 14.4122C9.0373 14.387 9.08598 14.3734 9.13569 14.3728C9.1854 14.3721 9.23442 14.3845 9.27789 14.4086C9.40215 14.4774 9.53099 14.5371 9.66325 14.5874C9.15561 13.96 8.87906 13.1772 8.87997 12.3701C8.87997 11.748 9.04479 11.1355 9.35645 10.5993C9.37964 10.5594 9.41219 10.5256 9.45129 10.501C9.49039 10.4764 9.53488 10.4616 9.58095 10.4579C9.62702 10.4543 9.67328 10.4619 9.71578 10.48C9.75827 10.4982 9.79573 10.5264 9.82493 10.5622C11.3443 12.4253 13.5531 13.5973 15.9289 13.8133C15.912 13.6718 15.9036 13.5293 15.9037 13.3868C15.9037 11.4452 17.4837 9.86549 19.4256 9.86549C20.3417 9.86549 21.2281 10.2268 21.882 10.8616C22.521 10.7193 23.1334 10.4764 23.6962 10.142C23.7102 10.0979 23.7348 10.0579 23.7677 10.0254C23.8006 9.99293 23.8409 9.96891 23.8852 9.95544C23.9294 9.94197 23.9763 9.93944 24.0217 9.94808C24.0672 9.95672 24.1098 9.97627 24.1461 10.005C24.1823 10.0338 24.211 10.071 24.2297 10.1133C24.2484 10.1556 24.2565 10.2018 24.2534 10.2479C24.2503 10.2941 24.236 10.3388 24.2118 10.3782C24.1876 10.4176 24.1542 10.4506 24.1144 10.4742C23.9745 10.9128 23.7493 11.3194 23.4517 11.6706C23.6938 11.5974 23.931 11.5093 24.1621 11.4066C24.2187 11.3816 24.2819 11.3757 24.3422 11.3897C24.4024 11.4037 24.4565 11.4369 24.4963 11.4843C24.5361 11.5316 24.5594 11.5907 24.5627 11.6524C24.5661 11.7142 24.5493 11.7754 24.5149 11.8268Z" fill="#FF7035"/>
</g>
</svg>
